<?xml version="1.0" encoding="UTF-8" standalone="no"?>
<!-- Generator: Adobe Illustrator 23.0.1, SVG Export Plug-In . SVG Version: 6.00 Build 0)  -->

<svg
   xmlns:dc="http://purl.org/dc/elements/1.1/"
   xmlns:cc="http://creativecommons.org/ns#"
   xmlns:rdf="http://www.w3.org/1999/02/22-rdf-syntax-ns#"
   xmlns:svg="http://www.w3.org/2000/svg"
   xmlns="http://www.w3.org/2000/svg"
   xmlns:sodipodi="http://sodipodi.sourceforge.net/DTD/sodipodi-0.dtd"
   xmlns:inkscape="http://www.inkscape.org/namespaces/inkscape"
   version="1.1"
   id="Шар_1"
   x="0px"
   y="0px"
   viewBox="0 0 113.2 108.2326"
   xml:space="preserve"
   sodipodi:docname="minilogowhite.svg"
   width="113.2"
   height="108.2326"
   inkscape:version="0.92.4 5da689c313, 2019-01-14"><metadata
   id="metadata3907"><rdf:RDF><cc:Work
       rdf:about=""><dc:format>image/svg+xml</dc:format><dc:type
         rdf:resource="http://purl.org/dc/dcmitype/StillImage" /><dc:title></dc:title></cc:Work></rdf:RDF></metadata><defs
   id="defs3905" /><sodipodi:namedview
   pagecolor="#ffffff"
   bordercolor="#666666"
   borderopacity="1"
   objecttolerance="10"
   gridtolerance="10"
   guidetolerance="10"
   inkscape:pageopacity="0"
   inkscape:pageshadow="2"
   inkscape:window-width="1280"
   inkscape:window-height="960"
   id="namedview3903"
   showgrid="false"
   inkscape:zoom="0.65555556"
   inkscape:cx="63.201695"
   inkscape:cy="48.545593"
   inkscape:window-x="0"
   inkscape:window-y="27"
   inkscape:window-maximized="1"
   inkscape:current-layer="Шар_1" />
<g
   id="g3900"
   transform="translate(-122.9,-127.1774)"
   style="fill:#ffffff">
	<path
   d="m 210.57,235.4 h 19.36 v -63.03 c -2.07,1.08 -5.18,2.4 -9.14,3.09 -4.25,0.73 -7.84,0.45 -10.22,0.07 0,19.96 0,39.92 0,59.87 z"
   id="path3896"
   inkscape:connector-curvature="0"
   style="fill:#ffffff" />
	<path
   d="m 235.44,139.66 c -0.76,-0.33 -1.61,0.13 -1.9,0.15 -1.8,0.11 -3.67,0.23 -5.21,0.93 -1.22,0.56 -2.39,1.37 -3.53,2.16 -0.66,0.46 -1.34,0.93 -2,1.33 -3.35,2.03 -7.94,5.22 -9.09,9.43 -0.01,0.03 -0.01,0.05 -0.01,0.07 0,0 0,0 0,0 -0.01,0.01 -0.03,0.03 -0.05,0.05 l -0.05,0.08 c -1.94,3.11 -4.13,6.64 -7.31,8.75 -0.7,0.47 -1.46,0.86 -2.2,1.24 -0.87,0.45 -1.77,0.91 -2.59,1.5 0.1,-0.57 0.14,-1.16 0.14,-1.8 -0.01,-1.42 0.15,-2.44 0.57,-3.52 0.22,-0.06 0.36,-0.23 0.38,-0.46 0.02,-0.18 0.04,-0.37 0.08,-0.6 0.6,-0.79 1.31,-1.52 1.99,-2.23 0.67,-0.69 1.36,-1.4 1.97,-2.19 1.35,-1.74 2.22,-3.95 2.61,-6.57 0.5,-3.47 0.37,-7.03 0.25,-10.49 -0.12,-3.19 -0.24,-6.49 0.14,-9.71 0.03,-0.25 -0.1,-0.46 -0.34,-0.56 -0.2,-0.08 -0.48,-0.06 -0.66,0.17 -3.11,4.07 -6.19,8.72 -7.67,15.11 -0.61,2.64 -1.3,5.64 -1.27,8.62 0.02,1.62 0.24,3.24 0.45,4.8 0.19,1.43 0.4,2.91 0.44,4.39 -0.1,0.22 -0.18,0.44 -0.26,0.67 -0.1,0.3 0.05,0.54 0.25,0.66 -0.04,0.28 -0.06,0.54 -0.06,0.79 0,0.23 0,0.46 0,0.68 0.01,1.11 0.01,2.15 -0.42,3.25 -0.03,0.07 -0.04,0.15 -0.04,0.23 -0.98,0.95 -1.87,2.02 -2.73,3.06 -1.18,1.43 -2.39,2.9 -3.89,4.08 -0.65,0.51 -1.31,1.06 -2,1.65 0,-0.5 0.1,-0.95 0.21,-1.46 0.04,-0.19 0.09,-0.39 0.13,-0.6 0.15,-0.79 0.18,-1.59 0.08,-2.45 1.57,-1.08 2.44,-2.93 2.22,-4.74 -0.24,-1.97 -1.93,-3.52 -3.77,-3.45 -0.98,0.04 -1.74,0.35 -2.27,0.92 -0.54,0.58 -0.8,1.43 -0.75,2.45 0.04,1.02 0.17,2.2 0.74,3.22 0.41,0.74 0.99,1.12 1.6,1.52 0.37,0.24 0.75,0.49 1.1,0.83 0.03,0.02 0.05,0.04 0.07,0.05 0.01,0.76 -0.1,1.54 -0.34,2.39 -0.25,0.89 -0.23,1.34 -0.04,2.22 -1.35,0.63 -3.36,1.34 -5.84,1.4 -6.42,0.15 -10.77,-4.15 -11.7,-5.11 L 142.12,136.13 H 122.9 v 99.28 h 8.57 v -79.23 c 13.09,15.12 26.18,30.24 39.27,45.36 6.39,-7.67 12.78,-15.34 19.18,-23.01 0.99,-0.96 2.02,-1.88 3.08,-2.81 0.36,-0.32 0.72,-0.63 1.08,-0.95 0.09,-0.03 0.16,-0.08 0.23,-0.14 0.8,-0.85 1.69,-1.2 2.64,-1.58 0.34,-0.14 0.7,-0.28 1.06,-0.44 0.45,-0.21 0.86,-0.49 1.25,-0.76 0.62,-0.42 1.21,-0.82 1.93,-0.98 4.31,1.61 10.01,3.39 15.95,2.93 5.7,-0.44 10.84,-2.67 16.03,-5.11 0.22,-0.1 0.34,-0.3 0.32,-0.53 -0.03,-0.25 -0.22,-0.46 -0.48,-0.52 -0.47,-0.1 -0.95,-0.21 -1.44,-0.32 -4.78,-1.08 -10.72,-2.43 -16.36,-2.5 -6.62,-0.08 -11.47,1.58 -14.84,5.1 -0.03,0.03 -0.04,0.05 -0.05,0.08 0,0 0,0 0,0.01 -0.54,0.22 -1.02,0.54 -1.49,0.85 -0.51,0.33 -1.03,0.68 -1.62,0.9 l -0.06,0.02 c 0.45,-0.53 0.89,-1.08 1.32,-1.61 1.25,-1.57 2.54,-3.19 4.27,-4.33 0.7,-0.46 1.45,-0.85 2.18,-1.22 0.96,-0.5 1.96,-1.01 2.85,-1.7 2.9,-2.25 4.97,-5.56 6.79,-8.48 0.03,-0.05 0.05,-0.1 0.06,-0.16 0.03,-0.03 0.06,-0.07 0.08,-0.12 4.1,-0.15 7.81,-1.22 11.01,-3.16 3.45,-2.09 6.04,-5.28 8.55,-8.36 0.56,-0.69 1.14,-1.41 1.72,-2.09 0.03,-0.03 0.11,-0.13 0.12,-0.26 -0.02,-0.35 -0.6,-0.6 -0.66,-0.63 z m -44.59,30.63 c -0.01,0.02 -0.03,0.03 -0.04,0.05 -0.1,-0.07 -0.21,-0.13 -0.31,-0.2 -0.21,-0.13 -0.42,-0.27 -0.61,-0.41 0.03,0.01 0.06,0.02 0.1,0.03 0.06,0.01 0.13,0 0.19,-0.01 0.21,-0.05 0.38,-0.21 0.44,-0.4 0.05,-0.16 0,-0.33 -0.13,-0.47 -0.38,-0.4 -0.57,-0.84 -0.58,-1.32 0,-0.11 0,-0.2 0.01,-0.3 0.02,-0.32 0.03,-0.61 -0.2,-0.94 -0.2,-0.28 -0.51,-0.26 -0.71,-0.11 -0.23,0.16 -0.36,0.5 -0.15,0.8 0.02,0.04 -0.01,0.22 -0.02,0.32 -0.01,0.08 -0.02,0.15 -0.02,0.2 0,0.26 0.03,0.51 0.1,0.75 0.11,0.41 0.31,0.78 0.57,1.11 -0.11,-0.1 -0.21,-0.22 -0.3,-0.34 -0.59,-0.81 -1.04,-2.49 -0.76,-3.7 0.13,-0.58 0.41,-0.98 0.83,-1.2 0.46,-0.24 0.94,-0.34 1.4,-0.29 0.33,0.03 0.65,0.14 0.95,0.32 0.84,0.5 1.37,1.45 1.38,2.49 0.02,1.4 -0.7,2.66 -1.97,3.46 -0.08,0.05 -0.14,0.1 -0.17,0.16 z m 25.75,-4.16 c 4.99,0.05 9.89,1.15 14.63,2.23 h 0.01 c -3.85,1.78 -8.35,3.7 -13.17,4.23 -6.09,0.68 -11.83,-1.04 -16.16,-2.63 4.04,-3.47 9.97,-3.87 14.69,-3.83 z M 201.09,154.5 c -0.39,-3.05 -0.24,-6.11 0.48,-9.61 1.16,-5.65 3.19,-10.22 6.78,-15.24 -0.17,2.67 -0.08,5.36 0,7.98 0.1,3.01 0.2,6.11 -0.09,9.16 -0.4,4.15 -2.16,6.78 -4.67,9.43 0.12,-0.28 0.25,-0.55 0.38,-0.82 0.5,-1.08 1.02,-2.19 1.27,-3.41 0.29,-1.41 0.33,-2.92 0.36,-4.38 0.02,-1.15 0.05,-2.35 0.2,-3.49 0.05,-0.36 -0.21,-0.55 -0.46,-0.59 -0.01,0 -0.01,0 -0.02,0 -0.27,-0.03 -0.57,0.12 -0.62,0.47 -0.15,1.1 -0.18,2.27 -0.22,3.4 -0.05,1.94 -0.11,3.94 -0.75,5.71 -0.26,0.71 -0.57,1.39 -0.87,2.05 -0.5,1.09 -0.97,2.13 -1.22,3.3 -0.02,0.03 -0.04,0.06 -0.06,0.09 -0.09,-1.03 -0.23,-2.08 -0.36,-3.09 -0.05,-0.31 -0.09,-0.63 -0.13,-0.96 z m 32.21,-12.44 c -2.11,2.62 -4.3,5.34 -7.02,7.23 -3,2.08 -6.43,3.32 -10.2,3.68 1.17,-0.91 2.55,-1.56 3.88,-2.19 1.45,-0.68 2.94,-1.39 4.2,-2.44 0.27,-0.23 0.24,-0.57 0.06,-0.78 -0.09,-0.11 -0.22,-0.19 -0.37,-0.21 -0.12,-0.01 -0.26,0.02 -0.38,0.13 -1.24,1.04 -2.73,1.74 -4.16,2.41 -1.22,0.57 -2.48,1.17 -3.59,1.97 1.88,-3.1 5.57,-5.5 8.96,-7.44 0.58,-0.34 1.18,-0.76 1.74,-1.18 0.77,-0.56 1.57,-1.14 2.37,-1.5 1.41,-0.64 3.22,-0.75 4.97,-0.86 0.17,-0.01 0.35,-0.02 0.52,-0.03 -0.34,0.41 -0.66,0.81 -0.98,1.21 z"
   id="path3898"
   inkscape:connector-curvature="0"
   style="fill:#ffffff" />
</g>
</svg>